# xmcd
#
# Track frame offsets: 
#        150
#        16302
#        32289
#        50247
#        68277
#        90007
#        106317
#        130301
#        150938
#        175975
#
# Disc length: 2536 seconds
#
# Revision: 0
# Processed by: cddbd v1.5.2PL0 Copyright (c) Steve Scherf et al.
# Submitted via: ExactAudioCopy v1.1
#
DISCID=6809e60a
DTITLE=Mary Bridget Davies - Wanna Feel Somethin'
DYEAR=2012
DGENRE=Blues
TTITLE0=Your Kinda Love
TTITLE1=Won't Pay You Mind
TTITLE2=Same Ol' Blues
TTITLE3=Real Thing
TTITLE4=Gettin' Stronger
TTITLE5=Wanna Feel Somethin'
TTITLE6=Take it to the Limit
TTITLE7=Trick the Devil
TTITLE8=Wonderwall
TTITLE9=Thunder and Lightnin'
EXTD=
EXTT0=
EXTT1=
EXTT2=
EXTT3=
EXTT4=
EXTT5=
EXTT6=
EXTT7=
EXTT8=
EXTT9=
PLAYORDER=
